<?xml version="1.0" encoding="utf-8"?><svg xml:space="preserve" viewBox="0 0 100 100" y="0" x="0" xmlns="http://www.w3.org/2000/svg" id="圖層_1" version="1.1" width="200px" height="200px" xmlns:xlink="http://www.w3.org/1999/xlink" style="width:100%;height:100%;background-size:initial;background-repeat-y:initial;background-repeat-x:initial;background-position-y:initial;background-position-x:initial;background-origin:initial;background-image:initial;background-color:rgb(255, 255, 255);background-clip:initial;background-attachment:initial;animation-play-state:paused" ><g class="ldl-scale" style="transform-origin:50% 50%;transform:rotate(0deg) scale(0.8, 0.8);animation-play-state:paused" ><g style="animation-play-state:paused" ><path fill="#77a4bd" d="M53.481 87.195h-6.963a3.199 3.199 0 0 1-3.199-3.199V31.084a3.199 3.199 0 0 1 3.199-3.199h6.963a3.199 3.199 0 0 1 3.199 3.199v52.913a3.198 3.198 0 0 1-3.199 3.198z" style="fill:rgb(119, 164, 189);animation-play-state:paused" ></path>
<path fill="#a0c8d7" d="M56.68 84.131l31.656-8.66A2.26 2.26 0 0 0 90 73.29V24.124a2.261 2.261 0 0 0-2.857-2.181L56.68 30.277v53.854z" style="fill:rgb(160, 200, 215);animation-play-state:paused" ></path>
<path fill="#a0c8d7" d="M43.32 84.131l-31.656-8.66A2.26 2.26 0 0 1 10 73.29V24.124a2.261 2.261 0 0 1 2.857-2.181l30.462 8.334v53.854z" style="fill:rgb(160, 200, 215);animation-play-state:paused" ></path></g>
<path fill="#c9c9c9" d="M51.68 84.131l29.703-13.015c.933-.269 1.579-1.162 1.579-2.181V19.769c0-1.491-1.347-2.574-2.712-2.181L51.68 30.277v53.854z" style="fill:rgb(201, 201, 201);animation-play-state:paused" ></path>
<path fill="#c9c9c9" d="M48.32 84.131L18.616 71.117c-.933-.269-1.58-1.162-1.58-2.181V19.769c0-1.491 1.347-2.574 2.712-2.181L48.32 30.277v53.854z" style="fill:rgb(201, 201, 201);animation-play-state:paused" ></path>
<path fill="#e0e0e0" d="M50.68 84.131L73.862 67.11c.766-.272 1.296-1.177 1.296-2.209V15.096c0-1.511-1.105-2.608-2.226-2.209L50.68 30.277v53.854z" style="fill:rgb(224, 224, 224);animation-play-state:paused" ></path>
<path fill="#e0e0e0" d="M49.32 84.131L26.138 67.11c-.766-.272-1.296-1.177-1.296-2.209V15.096c0-1.511 1.105-2.608 2.226-2.209l22.252 17.39v53.854z" style="fill:rgb(224, 224, 224);animation-play-state:paused" ></path>
<path d="M49.32 30.277h1.361v53.854H49.32z" fill="#c9c9c9" style="fill:rgb(201, 201, 201);animation-play-state:paused" ></path>
<metadata xmlns:d="https://loading.io/stock/" style="animation-play-state:paused" ><d:name style="animation-play-state:paused" >read</d:name>


<d:tags style="animation-play-state:paused" >note,write,type,transcript,manual,paper,compose,compile,edit,read,books</d:tags>


<d:license style="animation-play-state:paused" >by</d:license>


<d:slug style="animation-play-state:paused" >6qqjz7</d:slug></metadata></g><!-- generated by https://loading.io/ --></svg>