<svg xmlns="http://www.w3.org/2000/svg" width="38.83" height="38.83" viewBox="0 0 38.83 38.83">
    <path data-name="1-student" d="M21.415 15.868a6.934 6.934 0 1 1 6.934-6.934 6.934 6.934 0 0 1-6.934 6.934zm0 14.811a13.868 13.868 0 0 1 9.333-7.489h.069a9.707 9.707 0 0 0-18.8 0 13.868 13.868 0 0 1 9.398 7.489zm14.658-.943a24.5 24.5 0 0 0-3.4.236c-5.922.8-10.456 3.647-11.094 7.156a4.743 4.743 0 0 0-.166.929 4.743 4.743 0 0 0-.1-.985c-.707-3.509-5.242-6.351-11.094-7.156a24.5 24.5 0 0 0-3.467-.18H2V40.83h38.83V29.736zM22.913 30.8a12.481 12.481 0 0 0-1.082 2.774c2.094-2.468 5.908-4.3 10.65-4.937a26.057 26.057 0 0 1 3.592-.291h1.983v-4.16h-4.077a12.592 12.592 0 0 0-2.912.347 12.745 12.745 0 0 0-8.154 6.267zm-12.592-2.2c4.743.638 8.556 2.468 10.664 4.937a12.731 12.731 0 0 0-6.851-8.168 12.162 12.162 0 0 0-2.427-.832 12.592 12.592 0 0 0-2.857-.347H4.774v4.16h1.983a25.71 25.71 0 0 1 3.564.25z" transform="translate(-2 -2)" style="fill:#f07055"/>
</svg>
