<svg data-name="Layer 2" xmlns="http://www.w3.org/2000/svg" width="92" height="92" viewBox="0 0 92 92">
    <g data-name="invisible box">
        <path data-name="사각형 47" style="fill:none" d="M0 0h92v92H0z"/>
    </g>
    <g data-name="icons Q2">
        <path data-name="패스 10" d="M44.031 2a41.84 41.84 0 1 0 29.777 12.254A42.031 42.031 0 0 0 44.031 2zm0 76.42A34.389 34.389 0 1 1 78.42 44.031 34.389 34.389 0 0 1 44.031 78.42z" transform="translate(1.821 1.821)" style="fill:#fff"/>
        <path data-name="패스 11" d="M25.821 41.586h-.764l-.764-.382h-.573l-.573-.573-.573-.573c0-.191-.191-.382-.382-.573s0-.573-.191-.764v-1.529c.191-.191.191-.382.191-.764s.382-.382.382-.573l.573-.573a3.63 3.63 0 0 1 3.439-1.146h.764l.573.382.573.573.573.573c0 .191.191.382.191.573a1.448 1.448 0 0 0 .382.764v1.528c-.191.191-.191.382-.382.764s-.191.382-.191.573l-.573.573-.573.573h-.573l-.764.382z" transform="translate(20.031 31.014)" style="fill:#fff"/>
        <path data-name="패스 12" d="M32.959 48.2H31.43a3.821 3.821 0 0 1-2.1-4.967 13.947 13.947 0 0 1 6.878-7.451 9.361 9.361 0 0 0-2.1-17.959 10.126 10.126 0 0 0-8.024 1.91 10.126 10.126 0 0 0-3.439 7.26 3.821 3.821 0 1 1-7.642 0A16.812 16.812 0 0 1 21.3 14a16.812 16.812 0 0 1 14.329-3.63 17 17 0 0 1 3.821 32.1 7.069 7.069 0 0 0-3.05 3.245 3.63 3.63 0 0 1-3.441 2.485z" transform="translate(13.657 9.116)" style="fill:#fff"/>
    </g>
</svg>
