<?xml version="1.0" encoding="utf-8"?><svg xml:space="preserve" viewBox="0 0 100 100" y="0px" x="0px" xmlns:xlink="http://www.w3.org/1999/xlink" xmlns="http://www.w3.org/2000/svg" id="圖層_1" version="1.1" width="200px" height="200px" style="width:100%;height:100%;background-size:initial;background-repeat-y:initial;background-repeat-x:initial;background-position-y:initial;background-position-x:initial;background-origin:initial;background-image:initial;background-color:rgb(255, 255, 255);background-clip:initial;background-attachment:initial;animation-play-state:paused" ><g class="ldl-scale" style="transform-origin:50% 50%;transform:rotate(0deg) scale(0.8, 0.8);animation-play-state:paused" ><path d="M51.4,23.6l6.8,13.8c0.2,0.5,0.7,0.8,1.2,0.8 l15.3,2.2c1.3,0.2,1.8,1.8,0.9,2.6l-11,10.8c-0.4,0.4-0.5,0.9-0.4,1.4l2.6,15.2c0.2,1.3-1.1,2.2-2.3,1.6L50.7,65 c-0.5-0.2-1-0.2-1.4,0l-13.6,7.2c-1.1,0.6-2.5-0.4-2.3-1.6L36,55.3c0.1-0.5-0.1-1-0.4-1.4l-11-10.8c-0.9-0.9-0.4-2.5,0.9-2.6 l15.3-2.2c0.5-0.1,0.9-0.4,1.2-0.8l6.8-13.8C49.2,22.5,50.8,22.5,51.4,23.6z" stroke-miterlimit="10" stroke-width="3.5" stroke="#333435" fill="#F5E169" style="stroke:rgb(51, 52, 53);fill:rgb(245, 225, 105);animation-play-state:paused" ></path>
<g style="animation-play-state:paused" ><path d="M82.2,49.7l2.8,5.6c0.1,0.2,0.3,0.3,0.5,0.3 l6.2,0.9c0.5,0.1,0.7,0.7,0.3,1.1L87.5,62c-0.1,0.1-0.2,0.4-0.2,0.6l1.1,6.2c0.1,0.5-0.5,0.9-0.9,0.7L82,66.4 c-0.2-0.1-0.4-0.1-0.6,0l-5.5,2.9c-0.5,0.2-1-0.1-0.9-0.7l1.1-6.2c0-0.2,0-0.4-0.2-0.6l-4.5-4.4c-0.4-0.4-0.2-1,0.3-1.1l6.2-0.9 c0.2,0,0.4-0.2,0.5-0.3l2.8-5.6C81.3,49.2,82,49.2,82.2,49.7z" stroke-miterlimit="10" stroke-width="3.5" stroke="#333435" fill="#F5E169" style="stroke:rgb(51, 52, 53);fill:rgb(245, 225, 105);animation-play-state:paused" ></path>
<path d="M17.8,49.7L15,55.3c-0.1,0.2-0.3,0.3-0.5,0.3 l-6.2,0.9c-0.5,0.1-0.7,0.7-0.3,1.1l4.5,4.4c0.1,0.1,0.2,0.4,0.2,0.6l-1.1,6.2c-0.1,0.5,0.5,0.9,0.9,0.7l5.5-2.9 c0.2-0.1,0.4-0.1,0.6,0l5.5,2.9c0.5,0.2,1-0.1,0.9-0.7L24,62.5c0-0.2,0-0.4,0.2-0.6l4.5-4.4c0.4-0.4,0.2-1-0.3-1.1l-6.2-0.9 c-0.2,0-0.4-0.2-0.5-0.3l-2.8-5.6C18.7,49.2,18,49.2,17.8,49.7z" stroke-miterlimit="10" stroke-width="3.5" stroke="#333435" fill="#F5E169" style="stroke:rgb(51, 52, 53);fill:rgb(245, 225, 105);animation-play-state:paused" ></path></g>
<metadata xmlns:d="https://loading.io/stock/" style="animation-play-state:paused" ><d:name style="animation-play-state:paused" >star</d:name>


<d:tags style="animation-play-state:paused" >star,rank,rating,review,champion,winner</d:tags>


<d:license style="animation-play-state:paused" >by</d:license>


<d:slug style="animation-play-state:paused" >31q67i</d:slug></metadata></g><!-- generated by https://loading.io/ --></svg>