<?xml version="1.0" encoding="utf-8"?><svg xml:space="preserve" viewBox="0 0 100 100" y="0" x="0" xmlns="http://www.w3.org/2000/svg" id="圖層_1" version="1.1" width="200px" height="200px" xmlns:xlink="http://www.w3.org/1999/xlink" style="width:100%;height:100%;background-size:initial;background-repeat-y:initial;background-repeat-x:initial;background-position-y:initial;background-position-x:initial;background-origin:initial;background-image:initial;background-color:rgb(255, 255, 255);background-clip:initial;background-attachment:initial;animation-play-state:paused" ><g class="ldl-scale" style="transform-origin:50% 50%;transform:rotate(0deg) scale(0.8, 0.8);animation-play-state:paused" ><g style="animation-play-state:paused" ><path d="M75.667 23.964l11.663 6.734-2.817 4.879-11.663-6.734z" stroke-miterlimit="10" stroke-linejoin="round" stroke-linecap="round" stroke-width="1.99996" stroke="#333" fill="#e0e0e0" style="stroke:rgb(51, 51, 51);fill:rgb(224, 224, 224);animation-play-state:paused" ></path>
<path stroke-miterlimit="10" stroke-linejoin="round" stroke-linecap="round" stroke-width="2" stroke="#333" fill="#e15b64" d="M87.332 30.698l-11.663-6.734 3.873-6.709a3.678 3.678 0 0 1 5.024-1.346l5.293 3.056a3.678 3.678 0 0 1 1.346 5.024l-3.873 6.709z" style="stroke:rgb(51, 51, 51);fill:rgb(225, 91, 100);animation-play-state:paused" ></path>
<path d="M78.684 32.211l-5.832-3.367-7.322 12.682-10.173 17.62-5.399 9.352 5.831 3.367 5.832 3.367 5.399-9.352 10.173-17.62 7.322-12.682z" stroke-miterlimit="10" stroke-linejoin="round" stroke-linecap="round" stroke-width="2" stroke="#333" fill="#abbd81" style="stroke:rgb(51, 51, 51);fill:rgb(171, 189, 129);animation-play-state:paused" ></path>
<path d="M49.055 83.528l.903-15.03 11.663 6.734z" stroke-miterlimit="10" stroke-linejoin="round" stroke-linecap="round" stroke-width="2" stroke="#333" fill="#f8b26a" style="stroke:rgb(51, 51, 51);fill:rgb(248, 178, 106);animation-play-state:paused" ></path>
<path d="M55.338 79.38l-5.832-3.367-.451 7.515z" stroke-miterlimit="10" stroke-linejoin="round" stroke-linecap="round" stroke-width="2" stroke="#333" fill="#333" style="stroke:rgb(51, 51, 51);fill:rgb(51, 51, 51);animation-play-state:paused" ></path></g>
<path stroke-miterlimit="10" stroke-linejoin="round" stroke-linecap="round" stroke-width="2" stroke="#333" fill="none" d="M8.301 84.584c1.038-1.37 2.139-2.792 3.699-3.513 1.56-.721 3.716-.467 4.592 1.012.268.452.416 1.004.836 1.321 1.558 1.175 3.398-2.348 5.213-1.634.922.362 1.144 1.617 1.962 2.175 1.628 1.111 3.396-1.224 5.258-1.872 1.795-.624 3.681.424 5.473 1.058 1.791.634 4.321.53 4.961-1.259" style="stroke:rgb(51, 51, 51);animation-play-state:paused" ></path>
<metadata xmlns:d="https://loading.io/stock/" style="animation-play-state:paused" ><d:name style="animation-play-state:paused" >pencil</d:name>
<d:tags style="animation-play-state:paused" >pencil,write,draw,sketch,handwrite,cursive,edit,sign,signature,name,contract,compose</d:tags>
<d:license style="animation-play-state:paused" >by</d:license>
<d:slug style="animation-play-state:paused" >ctfxmo</d:slug></metadata></g><!-- generated by https://loading.io/ --></svg>