<?xml version="1.0" encoding="utf-8"?><svg viewBox="0 0 100 100" xmlns="http://www.w3.org/2000/svg" width="200px" height="200px" xmlns:xlink="http://www.w3.org/1999/xlink" style="width:100%;height:100%;background-size:initial;background-repeat-y:initial;background-repeat-x:initial;background-position-y:initial;background-position-x:initial;background-origin:initial;background-color:initial;background-clip:initial;background-attachment:initial;animation-play-state:paused" ><g class="ldl-scale" style="transform-origin:50% 50%;transform:rotate(0deg) scale(0.8, 0.8);animation-play-state:paused" ><path stroke-miterlimit="10" stroke-linejoin="round" stroke-linecap="round" stroke-width="3" stroke="#323232" fill="none" d="M77.713 13.333H22.287C15.501 13.333 10 18.835 10 25.621v31.11c0 6.786 5.501 12.287 12.287 12.287h4.804L23.6 86.667l15.127-17.648h38.986C84.499 69.018 90 63.517 90 56.731v-31.11c0-6.786-5.501-12.288-12.287-12.288z" style="stroke:rgb(50, 50, 50);animation-play-state:paused" ></path>
<g style="animation-play-state:paused" ><path stroke-miterlimit="10" stroke-linejoin="round" stroke-linecap="round" stroke-width="3" stroke="#76a4bd" fill="none" d="M62.478 35.673H54.17v-6.086a6.88 6.88 0 0 0-5.193-6.669 1.344 1.344 0 0 0-1.684 1.295v6.893a5.823 5.823 0 0 1-5.824 5.823h0a.909.909 0 0 0-.909.909v15.767a2.97 2.97 0 0 0 2.971 2.971H58.6a6.247 6.247 0 0 0 6.03-4.616l2.693-9.958c.863-3.19-1.54-6.329-4.845-6.329z" style="stroke:rgb(118, 164, 189);animation-play-state:paused" ></path>
<path d="M32.5 35.977h8.061v21.147H32.5z" stroke-miterlimit="10" stroke-linejoin="round" stroke-linecap="round" stroke-width="3" stroke="#76a4bd" fill="none" style="stroke:rgb(118, 164, 189);animation-play-state:paused" ></path></g>
<metadata xmlns:d="https://loading.io/stock/" style="animation-play-state:paused" ><d:name style="animation-play-state:paused" >praise</d:name>


<d:tags style="animation-play-state:paused" >praise,compliment,thumbs up,good job,nice work,approve,congratulation</d:tags>


<d:license style="animation-play-state:paused" >by</d:license>


<d:slug style="animation-play-state:paused" >74qxdu</d:slug></metadata></g><!-- generated by https://loading.io/ --></svg>