<?xml version="1.0" encoding="utf-8"?><svg xml:space="preserve" viewBox="0 0 100 100" y="0" x="0" xmlns="http://www.w3.org/2000/svg" id="圖層_1" version="1.1" width="200px" height="200px" xmlns:xlink="http://www.w3.org/1999/xlink" style="width:100%;height:100%;background-size:initial;background-repeat-y:initial;background-repeat-x:initial;background-position-y:initial;background-position-x:initial;background-origin:initial;background-image:initial;background-color:rgb(255, 255, 255);background-clip:initial;background-attachment:initial;animation-play-state:paused" ><g class="ldl-scale" style="transform-origin:50% 50%;transform:rotate(0deg) scale(0.8, 0.8);animation-play-state:paused" ><path fill="#f5e6c8" d="M43.139 80.242c1.423.742 3.365 1.753 4.205 1.78 3.046-.117 5.865-.172 8.865-.172 1.708 0 3.297.017 4.878.035 1.549.016 3.089.033 4.728.033 3.247 0 6.177-.066 9.503-.213.422-.019.873-.027 1.345-.033 4.548-.066 5.473-.578 5.505-3.048.013-1.023.021-1.536-4.17-1.759-.562-.03-1.108-.06-1.614-.109l.177-4.84.471-.005c.343 0 .715.008 1.107.014.406.008.834.017 1.273.017 4.914 0 4.923-1.323 4.931-2.489.016-2.155-.933-3.325-6.165-3.744l-.062-4.83.827-.084c5.31-.532 7.838-1.216 7.838-3.659 0-.906 0-3.03-7.772-3.142l-.058-4.849.66-.024c6.161-.208 8.039-1.116 8.039-3.886 0-2.506-4.592-3.032-7.328-3.122-1.975-.065-4.17.033-6.523.136-3.149.139-6.548.246-8.997.047l-2.969-.24 1.181-4.03c1.568-5.309 2.514-8.514 1.521-13.765-.78-4.124-3.577-6.495-7.739-6.277-.769 11.196-4.361 28.266-18.659 33.736.103 4.573.027 9.051-.047 13.4-.071 4.196-.144 8.514-.055 12.887 1.684.455 3.415 1.355 5.104 2.235z" style="fill:rgb(245, 230, 200);animation-play-state:paused" ></path>
<path d="M89.302 51.795c1.866-1.265 3.198-3.292 3.198-6.559 0-2.828-1.562-7.625-12.021-7.969-2.124-.068-4.551.036-6.894.137-1.799.079-3.659.159-5.381.163 1.352-4.701 2.171-8.524 1.096-14.207-1.195-6.311-5.839-10.232-12.118-10.232-1.025 0-2.089.107-3.166.321l-1.871.371-.082 1.906c-.414 9.764-3.039 26.418-15.532 31.366l-.016 35.552c1.24.271 2.956 1.158 4.384 1.902 2.299 1.197 4.47 2.328 6.479 2.328l.093-.002c3.005-.117 5.781-.171 8.738-.171 1.691 0 3.262.017 4.826.035 1.565.016 3.122.033 4.78.033 3.276 0 6.364-.069 9.717-.219.376-.016.78-.022 1.2-.027 3.306-.049 10.186-.147 10.286-7.835.017-1.42-.281-2.531-.788-3.403 1.95-1.21 2.943-3.145 2.962-5.795.019-2.542-.802-4.32-2.018-5.566 2.496-1.164 4.458-3.175 4.458-6.785 0-2.468-.942-4.169-2.33-5.344zm-9.692-2.673l-.66.024.058 4.849c7.772.112 7.772 2.236 7.772 3.142 0 2.443-2.528 3.126-7.838 3.659l-.827.084.062 4.83c5.231.419 6.18 1.589 6.165 3.744-.008 1.165-.017 2.489-4.931 2.489-.439 0-.867-.01-1.273-.017-.392-.006-.764-.014-1.107-.014l-.471.005-.177 4.84c.505.049 1.052.079 1.614.109 4.191.223 4.183.736 4.17 1.759-.032 2.47-.957 2.981-5.505 3.048a42.32 42.32 0 0 0-1.345.033c-3.325.147-6.256.213-9.503.213-1.639 0-3.179-.017-4.728-.033-1.581-.017-3.169-.035-4.878-.035-3 0-5.819.055-8.865.172-.84-.027-2.782-1.037-4.205-1.78-1.69-.88-3.42-1.78-5.105-2.236-.088-4.372-.016-8.691.055-12.887.074-4.349.15-8.827.047-13.4 14.298-5.47 17.89-22.539 18.658-33.733 4.162-.218 6.959 2.152 7.739 6.277.993 5.25.047 8.456-1.521 13.765l-1.181 4.03 2.969.24c2.449.199 5.849.092 8.997-.047 2.353-.103 4.548-.201 6.523-.136 2.736.09 7.328.616 7.328 3.122.002 2.768-1.875 3.676-8.037 3.884z" style="animation-play-state:paused" ></path>
<path fill="#849b87" d="M35.164 44.428H15.585A8.085 8.085 0 0 0 7.5 52.513V77.17a8.085 8.085 0 0 0 8.085 8.085H35.165a3.33 3.33 0 0 0 3.25-2.612l.016-35.552a3.335 3.335 0 0 0-3.267-2.663z" style="fill:rgb(132, 155, 135);animation-play-state:paused" ></path>
<metadata xmlns:d="https://loading.io/stock/" style="animation-play-state:paused" ><d:name style="animation-play-state:paused" >like</d:name>
<d:tags style="animation-play-state:paused" >great,good,thumb up,accept,ok,appreciate,like,conversation</d:tags>
<d:license style="animation-play-state:paused" >by</d:license>
<d:slug style="animation-play-state:paused" >u5xvk2</d:slug></metadata></g><!-- generated by https://loading.io/ --></svg>