<?xml version="1.0" encoding="utf-8"?><svg xml:space="preserve" viewBox="0 0 100 100" y="0" x="0" xmlns="http://www.w3.org/2000/svg" id="圖層_1" version="1.1" width="200px" height="200px" xmlns:xlink="http://www.w3.org/1999/xlink" style="width:100%;height:100%;background-size:initial;background-repeat-y:initial;background-repeat-x:initial;background-position-y:initial;background-position-x:initial;background-origin:initial;background-image:initial;background-color:rgb(255, 255, 255);background-clip:initial;background-attachment:initial;animation-play-state:paused" ><g class="ldl-scale" style="transform-origin:50% 50%;transform:rotate(0deg) scale(0.8, 0.8);animation-play-state:paused" ><path d="M89.302 51.795c1.866-1.265 3.198-3.292 3.198-6.559 0-2.828-1.562-7.625-12.021-7.969-2.124-.068-4.551.036-6.894.137-1.799.079-3.659.159-5.381.163 1.352-4.701 2.171-8.524 1.096-14.207-1.195-6.312-5.839-10.232-12.117-10.232-1.025 0-2.089.107-3.166.321l-1.871.371-.082 1.906c-.395 9.32-2.812 24.91-13.896 30.613a3.324 3.324 0 0 0-3.002-1.91H15.585A8.085 8.085 0 0 0 7.5 52.514V77.17a8.085 8.085 0 0 0 8.085 8.085H35.165a3.325 3.325 0 0 0 3.056-2.022c.889.383 1.833.871 2.678 1.311 2.299 1.197 4.47 2.328 6.479 2.328l.093-.001c3.005-.117 5.781-.171 8.738-.171 1.691 0 3.262.017 4.826.035 1.565.016 3.122.033 4.78.033 3.276 0 6.364-.069 9.717-.219.376-.016.78-.022 1.2-.027 3.306-.049 10.186-.147 10.286-7.835.017-1.42-.281-2.531-.788-3.403 1.95-1.209 2.943-3.146 2.962-5.795.019-2.542-.802-4.32-2.018-5.566 2.496-1.164 4.458-3.175 4.458-6.785 0-2.467-.942-4.168-2.33-5.343zm-9.692-2.673l-.66.024.058 4.849c7.772.112 7.772 2.236 7.772 3.142 0 2.443-2.528 3.126-7.838 3.659l-.827.084.062 4.83c5.231.419 6.18 1.589 6.165 3.744-.008 1.165-.017 2.489-4.931 2.489-.439 0-.867-.01-1.273-.017-.392-.006-.764-.014-1.107-.014l-.471.005-.177 4.84c.505.049 1.052.079 1.614.109 4.191.223 4.183.736 4.17 1.759-.032 2.47-.957 2.981-5.505 3.047a42.32 42.32 0 0 0-1.345.033c-3.325.147-6.256.213-9.503.213-1.639 0-3.179-.017-4.728-.033-1.581-.017-3.169-.035-4.878-.035-3 0-5.819.055-8.865.172-.84-.027-2.782-1.037-4.205-1.78-1.562-.813-3.159-1.629-4.723-2.11l.012-26.534c14.051-5.591 17.604-22.495 18.367-33.611 4.162-.218 6.959 2.152 7.739 6.277.993 5.25.047 8.456-1.521 13.765l-1.181 4.03 2.969.24c2.449.199 5.849.092 8.997-.047 2.353-.103 4.548-.201 6.523-.136 2.736.09 7.328.616 7.328 3.122.001 2.768-1.876 3.676-8.038 3.884z" style="animation-play-state:paused" ></path>
<metadata xmlns:d="https://loading.io/stock/" style="animation-play-state:paused" ><d:name style="animation-play-state:paused" >like</d:name>
<d:tags style="animation-play-state:paused" >great,good,thumb up,accept,ok,appreciate,like,conversation</d:tags>
<d:license style="animation-play-state:paused" >by</d:license>
<d:slug style="animation-play-state:paused" >ushict</d:slug></metadata></g><!-- generated by https://loading.io/ --></svg>